# Made in Blockbench 4.8.3
mtllib boat.mtl

o cuboid
v 0 0.9375 -7
v 0 0.9375 3.5625
v 0 0 3.4375
v 0 -0.3125 3.4375
v 0 -0.3125 -5.96875
v 0 0 -6.15625
v 0 1.0625 -6.796875
v 0 1.0625 3.5625
v 0.859375 0.9375 3.484375
v 0.859375 0.9375 -5.875
v 0.859375 -0.3125 3.359375
v 0.859375 -0.3125 -1.515625
v 0.859375 0 -3.421875
v 0.859375 0 3.359375
v 0.4296875 0.9375 -6.703125
v 0.4296875 0.9375 3.5625
v 0.4296875 0 3.4375
v 0.4296875 -0.3125 3.4375
v 0.4296875 -0.3125 -5.109375
v 0.4296875 0 -5.296875
v 0.4296875 1.0625 -6.5
v 0.859375 1.0625 3.484375
v 0.4296875 1.0625 3.5625
v 0.859375 1.0625 -5.671875
v -0.859375 0.9375 3.484375
v -0.859375 0.9375 -5.875
v -0.859375 -0.3125 3.359375
v -0.859375 -0.3125 -1.515625
v -0.859375 0 -3.421875
v -0.859375 0 3.359375
v -0.4296875 0.9375 -6.703125
v -0.4296875 0.9375 3.5625
v -0.4296875 0 3.4375
v -0.4296875 -0.3125 3.4375
v -0.4296875 -0.3125 -5.109375
v -0.4296875 0 -5.296875
v -0.4296875 1.0625 -6.5
v -0.859375 1.0625 3.484375
v -0.4296875 1.0625 3.5625
v -0.859375 1.0625 -5.671875
vt 0.4451915084208853 0.9453125
vt 0.4412852584208853 0.916015625
vt 0.2293711959208853 0.916015625
vt 0.1527110396708853 0.9453125
vt 0.2889415084208853 0.90625
vt 0.2293711959208853 0.916015625
vt 0.4412852584208853 0.916015625
vt 0.4412852584208853 0.90625
vt 0.013916015625 0.99072265625
vt 0.013916015625 0.67626953125
vt 0.00048828125 0.6787109375
vt 0.00048828125 0.96484375
vt 0.284423828125 0.79296875
vt 0.283725 0.7634208984374999
vt 0.27007714843749997 0.7634208984374999
vt 0.2707759765625 0.79296875
vt 0.284423828125 0.7634125
vt 0.284423828125 0.753646875
vt 0.2707759765625 0.753646875
vt 0.2707759765625 0.7634125
vt 0.070556640625 0.9990234375
vt 0.070556640625 0.73193359375
vt 0.05712890625 0.84423828125
vt 0.05712890625 0.99658203125
vt 0.17611256327354413 0.9038693652469962
vt 0.1714049424255785 0.914226455993777
vt 0.22907600373256062 0.9145492623386383
vt 0.2885741562229067 0.90196602997847
vt 0.2421875 0.7702708737627575
vt 0.2508154802075953 0.8223773006304607
vt 0.267578125 0.7979228512286445
vt 0.267578125 0.716796875
vt 0.013916015625 0.67626953125
vt 0.013916015625 0.99072265625
vt 0.02734375 1
vt 0.02734375 0.67626953125
vt 0.284423828125 0.7634125
vt 0.284423828125 0.79296875
vt 0.2978515625 0.79296875
vt 0.2978515625 0.7634125
vt 0.284423828125 0.753646875
vt 0.284423828125 0.7634125
vt 0.2978515625 0.7634125
vt 0.2978515625 0.753646875
vt 0.070556640625 0.73193359375
vt 0.070556640625 0.9990234375
vt 0.083984375 0.9990234375
vt 0.083984375 0.705078125
vt 0.16928962189758756 0.9140830246259718
vt 0.17531470944559024 0.9044186816923405
vt 0.1453838132393938 0.902040908396236
vt 0.1393587256913911 0.9117052513298672
vt 0.12731344263571895 0.9461376196054497
vt 0.16928962189758756 0.9140830246259718
vt 0.13935872569139113 0.9117052513298672
vt 0.11340224157911469 0.9406393904425568
vt 0.2707759765625 0.796875
vt 0.284423828125 0.796875
vt 0.284423828125 0.79296875
vt 0.2707759765625 0.79296875
vt 0.1590586959208853 0.94921875
vt 0.4451915084208853 0.94921875
vt 0.4451915084208853 0.9453125
vt 0.1527110396708853 0.9453125
vt 0.3497509765625 0.7932046163090427
vt 0.37890625 0.7932046163090427
vt 0.37327187500000003 0.7883255147465427
vt 0.3441166015625 0.7883255147465427
vt 0.3344294924369357 0.798828125
vt 0.3497509765625 0.7932046163090427
vt 0.34411662072994936 0.7883255313446449
vt 0.3287951366043851 0.7939490400356022
vt 0.284423828125 0.796875
vt 0.2978515625 0.796875
vt 0.2978515625 0.79296875
vt 0.284423828125 0.79296875
vt 0.2293711959208853 0.916015625
vt 0.4412852584208853 0.916015625
vt 0.4451915084208853 0.9453125
vt 0.1527110396708853 0.9453125
vt 0.4412852584208853 0.916015625
vt 0.2293711959208853 0.916015625
vt 0.2889415084208853 0.90625
vt 0.4412852584208853 0.90625
vt 0.00048828125 0.6787109375
vt 0.013916015625 0.67626953125
vt 0.013916015625 0.99072265625
vt 0.00048828125 0.96484375
vt 0.27007714843749997 0.7634208984374999
vt 0.283725 0.7634208984374999
vt 0.284423828125 0.79296875
vt 0.2707759765625 0.79296875
vt 0.2707759765625 0.753646875
vt 0.284423828125 0.753646875
vt 0.284423828125 0.7634125
vt 0.2707759765625 0.7634125
vt 0.05712890625 0.84423828125
vt 0.070556640625 0.73193359375
vt 0.070556640625 0.9990234375
vt 0.05712890625 0.99658203125
vt 0.22907600373256062 0.9145492623386383
vt 0.1714049424255785 0.914226455993777
vt 0.17611256327354413 0.9038693652469962
vt 0.2885741562229067 0.90196602997847
vt 0.267578125 0.7979228512286445
vt 0.2508154802075953 0.8223773006304607
vt 0.2421875 0.7702708737627575
vt 0.267578125 0.716796875
vt 0.02734375 1
vt 0.013916015625 0.99072265625
vt 0.013916015625 0.67626953125
vt 0.02734375 0.67626953125
vt 0.2978515625 0.79296875
vt 0.284423828125 0.79296875
vt 0.284423828125 0.7634125
vt 0.2978515625 0.7634125
vt 0.2978515625 0.7634125
vt 0.284423828125 0.7634125
vt 0.284423828125 0.753646875
vt 0.2978515625 0.753646875
vt 0.083984375 0.9990234375
vt 0.070556640625 0.9990234375
vt 0.070556640625 0.73193359375
vt 0.083984375 0.705078125
vt 0.1453838132393938 0.902040908396236
vt 0.17531470944559024 0.9044186816923405
vt 0.16928962189758756 0.9140830246259718
vt 0.1393587256913911 0.9117052513298672
vt 0.13935872569139113 0.9117052513298672
vt 0.16928962189758756 0.9140830246259718
vt 0.12731344263571895 0.9461376196054497
vt 0.11340224157911469 0.9406393904425568
vt 0.284423828125 0.79296875
vt 0.284423828125 0.796875
vt 0.2707759765625 0.796875
vt 0.2707759765625 0.79296875
vt 0.4451915084208853 0.9453125
vt 0.4451915084208853 0.94921875
vt 0.1590586959208853 0.94921875
vt 0.1527110396708853 0.9453125
vt 0.37327187500000003 0.7883255147465427
vt 0.37890625 0.7932046163090427
vt 0.3497509765625 0.7932046163090427
vt 0.3441166015625 0.7883255147465427
vt 0.34411662072994936 0.7883255313446449
vt 0.3497509765625 0.7932046163090427
vt 0.3344294924369357 0.798828125
vt 0.3287951366043851 0.7939490400356022
vt 0.2978515625 0.79296875
vt 0.2978515625 0.796875
vt 0.284423828125 0.796875
vt 0.284423828125 0.79296875
vn 1 0 0
vn 1 0 0
vn 0 1 0
vn 0.17736581378341415 -0.13006826344117037 0.9755119758087779
vn 0.17888543819998318 0 0.9838699100999074
vn 0 -1 0
vn 0.9660940194106329 -0.13283792766896202 -0.2213965461149367
vn 0.7303010764554643 -0.5683947057318472 -0.37892980382123154
vn 0 1 0
vn 0 -0.13216372009101796 0.9912279006826347
vn 0 0 1
vn 0 -1 0
vn 0.8638684255813601 -0.25916052767440806 -0.43193421279068006
vn 0.7427813527082074 -0.5570860145311556 -0.3713906763541037
vn 0.17888543819998318 0 0.9838699100999074
vn 1 0 0
vn 0.7106433309426113 0.5991862990848669 -0.3687300302060719
vn 0.34046993749160104 0.8007763332450485 -0.49278543584310674
vn 0 0 1
vn -1 0 0
vn -1 0 0
vn 0 1 0
vn -0.17736581378341415 -0.13006826344117037 0.9755119758087779
vn -0.17888543819998318 0 0.9838699100999074
vn 0 -1 0
vn -0.9660940194106329 -0.13283792766896202 -0.2213965461149367
vn -0.7303010764554643 -0.5683947057318472 -0.37892980382123154
vn 0 1 0
vn 0 -0.13216372009101796 0.9912279006826347
vn 0 0 1
vn 0 -1 0
vn -0.8638684255813601 -0.25916052767440806 -0.43193421279068006
vn -0.7427813527082074 -0.5570860145311556 -0.3713906763541037
vn -0.17888543819998318 0 0.9838699100999074
vn -1 0 0
vn -0.7106433309426113 0.5991862990848669 -0.3687300302060719
vn -0.34046993749160104 0.8007763332450485 -0.49278543584310674
vn 0 0 1
usemtl m_b6ff2bf3-7377-38d9-cef1-a4bad89fd7a3
f 9/1/1 14/2/1 13/3/1 10/4/1
f 12/5/2 13/6/2 14/7/2 11/8/2
f 21/9/3 23/10/3 22/11/3 24/12/3
f 16/13/4 17/14/4 14/15/4 9/16/4
f 17/17/5 18/18/5 11/19/5 14/20/5
f 18/21/6 19/22/6 12/23/6 11/24/6
f 19/25/7 20/26/7 13/27/7 12/28/7
f 20/29/8 15/30/8 10/31/8 13/32/8
f 23/33/9 21/34/9 7/35/9 8/36/9
f 17/37/10 16/38/10 2/39/10 3/40/10
f 18/41/11 17/42/11 3/43/11 4/44/11
f 19/45/12 18/46/12 4/47/12 5/48/12
f 20/49/13 19/50/13 5/51/13 6/52/13
f 15/53/14 20/54/14 6/55/14 1/56/14
f 22/57/15 23/58/15 16/59/15 9/60/15
f 24/61/16 22/62/16 9/63/16 10/64/16
f 21/65/17 24/66/17 10/67/17 15/68/17
f 7/69/18 21/70/18 15/71/18 1/72/18
f 23/73/19 8/74/19 2/75/19 16/76/19
f 29/77/20 30/78/20 25/79/20 26/80/20
f 30/81/21 29/82/21 28/83/21 27/84/21
f 38/85/22 39/86/22 37/87/22 40/88/22
f 30/89/23 33/90/23 32/91/23 25/92/23
f 27/93/24 34/94/24 33/95/24 30/96/24
f 28/97/25 35/98/25 34/99/25 27/100/25
f 29/101/26 36/102/26 35/103/26 28/104/26
f 26/105/27 31/106/27 36/107/27 29/108/27
f 7/109/28 37/110/28 39/111/28 8/112/28
f 2/113/29 32/114/29 33/115/29 3/116/29
f 3/117/30 33/118/30 34/119/30 4/120/30
f 4/121/31 34/122/31 35/123/31 5/124/31
f 5/125/32 35/126/32 36/127/32 6/128/32
f 6/129/33 36/130/33 31/131/33 1/132/33
f 32/133/34 39/134/34 38/135/34 25/136/34
f 25/137/35 38/138/35 40/139/35 26/140/35
f 26/141/36 40/142/36 37/143/36 31/144/36
f 31/145/37 37/146/37 7/147/37 1/148/37
f 2/149/38 8/150/38 39/151/38 32/152/38
o cuboid
v 0 1.921875 -4.890625
v 0 1.921875 3.359375
v 0 1.0625 3.5625
v 0 1.0625 -5.703125
v 0 1.0625 -4.171875
v 0 2.21875 -4.671875
v 0 2.21875 -4.171875
v 0 2.21875 2.375
v 0.84375 1.921875 3.265625
v 0.84375 1.921875 -4.765625
v 0.84375 1.0625 3.46875
v 0.84375 1.0625 -5.578125
v 0.421875 1.921875 -4.84375
v 0.421875 1.921875 3.359375
v 0.421875 1.0625 3.5625
v 0.421875 1.0625 -5.65625
v 0.84375 1.921875 -4.171875
v 0.84375 1.0625 -4.171875
v 0.421875 1.0625 -4.171875
v 0.421875 1.921875 -4.171875
v 0.421875 2.21875 -4.625
v 0.421875 2.21875 -4.21875
v 0.84375 2.21875 -4.21875
v 0.84375 2.21875 -4.546875
v 0.421875 2.21875 2.375
v -0.84375 1.921875 3.265625
v -0.84375 1.921875 -4.765625
v -0.84375 1.0625 3.46875
v -0.84375 1.0625 -5.578125
v -0.421875 1.921875 -4.84375
v -0.421875 1.921875 3.359375
v -0.421875 1.0625 3.5625
v -0.421875 1.0625 -5.65625
v -0.84375 1.921875 -4.171875
v -0.84375 1.0625 -4.171875
v -0.421875 1.0625 -4.171875
v -0.421875 1.921875 -4.171875
v -0.421875 2.21875 -4.625
v -0.421875 2.21875 -4.21875
v -0.84375 2.21875 -4.21875
v -0.84375 2.21875 -4.546875
v -0.421875 2.21875 2.375
vt 0.493896484375 0.8662109375
vt 0.255126953125 0.8662109375
vt 0.255126953125 0.89306640625
vt 0.487548828125 0.89306640625
vt 0.2109375 0.591796875
vt 0.2109375 0.82421875
vt 0.224609375 0.82421875
vt 0.224609375 0.5888671875
vt 0.31689453125 0.7258885319428365
vt 0.31689453125 0.6982930145581747
vt 0.30340608565604443 0.698966992362367
vt 0.3034062807251811 0.7265625
vt 0.12646484375 0.89697265625
vt 0.12646484375 0.6552734375
vt 0.11328125 0.6552734375
vt 0.11328125 0.89404296875
vt 0.31702997854572107 0.6463897584013094
vt 0.31690419958892374 0.6832413510407271
vt 0.3302955972573742 0.6834163227745707
vt 0.3304213762141715 0.6465647301351529
vt 0.18115234375 0.68212890625
vt 0.18115234375 0.88818359375
vt 0.1943359375 0.88671875
vt 0.1943359375 0.68212890625
vt 0.31689453125 0.6982930241303367
vt 0.31689453125 0.7258885319428365
vt 0.330078125 0.7258885319428365
vt 0.330078125 0.6982930241303367
vt 0.1396484375 0.89697265625
vt 0.1396484375 0.6552734375
vt 0.12646484375 0.6552734375
vt 0.12646484375 0.89697265625
vt 0.31690419729572106 0.6832413209013094
vt 0.31702997854572107 0.6463897584013094
vt 0.3037653301082211 0.6463897584013094
vt 0.3036395488582211 0.6832413209013094
vt 0.236572265625 0.89306640625
vt 0.255126953125 0.89306640625
vt 0.255126953125 0.8662109375
vt 0.211181640625 0.8662109375
vt 0.11328125 0.611328125
vt 0.11328125 0.6552734375
vt 0.12646484375 0.6552734375
vt 0.12646484375 0.60888671875
vt 0.12646484375 0.60888671875
vt 0.12646484375 0.6552734375
vt 0.1396484375 0.6552734375
vt 0.1396484375 0.607421875
vt 0.1943359375 0.90234375
vt 0.1943359375 0.88671875
vt 0.18115234375 0.88818359375
vt 0.18115234375 0.90087890625
vt 0.18115234375 0.90087890625
vt 0.18115234375 0.88818359375
vt 0.16796875 0.88818359375
vt 0.16796875 0.8984375
vt 0.11328125 0.919921875
vt 0.126953125 0.919921875
vt 0.126953125 0.91015625
vt 0.11328125 0.91015625
vt 0.243408203125 0.90234375
vt 0.253662109375 0.90234375
vt 0.255126953125 0.89306640625
vt 0.236572265625 0.89306640625
vt 0.3166825176082211 0.6947405396513094
vt 0.330078125 0.69482421875
vt 0.33029981149873755 0.6833251037563836
vt 0.31690420410695863 0.683241424657693
vt 0.3034178691707211 0.6947405396513094
vt 0.3166825176082211 0.6947405396513094
vt 0.31690419729572106 0.6832413209013094
vt 0.3036395488582211 0.6832413209013094
vt 0.270263671875 0.75
vt 0.476318359375 0.75
vt 0.507080078125 0.740234375
vt 0.271728515625 0.740234375
vt 0.18115234375 0.68212890625
vt 0.1943359375 0.68212890625
vt 0.1943359375 0.6499986328125
vt 0.18115234375 0.6499986328125
vt 0.255126953125 0.89306640625
vt 0.255126953125 0.8662109375
vt 0.493896484375 0.8662109375
vt 0.487548828125 0.89306640625
vt 0.224609375 0.82421875
vt 0.2109375 0.82421875
vt 0.2109375 0.591796875
vt 0.224609375 0.5888671875
vt 0.30340608565604443 0.698966992362367
vt 0.31689453125 0.6982930145581747
vt 0.31689453125 0.7258885319428365
vt 0.3034062807251811 0.7265625
vt 0.11328125 0.6552734375
vt 0.12646484375 0.6552734375
vt 0.12646484375 0.89697265625
vt 0.11328125 0.89404296875
vt 0.3302955972573742 0.6834163227745707
vt 0.31690419958892374 0.6832413510407271
vt 0.31702997854572107 0.6463897584013094
vt 0.3304213762141715 0.6465647301351529
vt 0.1943359375 0.88671875
vt 0.18115234375 0.88818359375
vt 0.18115234375 0.68212890625
vt 0.1943359375 0.68212890625
vt 0.330078125 0.7258885319428365
vt 0.31689453125 0.7258885319428365
vt 0.31689453125 0.6982930241303367
vt 0.330078125 0.6982930241303367
vt 0.12646484375 0.6552734375
vt 0.1396484375 0.6552734375
vt 0.1396484375 0.89697265625
vt 0.12646484375 0.89697265625
vt 0.3037653301082211 0.6463897584013094
vt 0.31702997854572107 0.6463897584013094
vt 0.31690419729572106 0.6832413209013094
vt 0.3036395488582211 0.6832413209013094
vt 0.255126953125 0.8662109375
vt 0.255126953125 0.89306640625
vt 0.236572265625 0.89306640625
vt 0.211181640625 0.8662109375
vt 0.12646484375 0.6552734375
vt 0.11328125 0.6552734375
vt 0.11328125 0.611328125
vt 0.12646484375 0.60888671875
vt 0.1396484375 0.6552734375
vt 0.12646484375 0.6552734375
vt 0.12646484375 0.60888671875
vt 0.1396484375 0.607421875
vt 0.18115234375 0.88818359375
vt 0.1943359375 0.88671875
vt 0.1943359375 0.90234375
vt 0.18115234375 0.90087890625
vt 0.16796875 0.88818359375
vt 0.18115234375 0.88818359375
vt 0.18115234375 0.90087890625
vt 0.16796875 0.8984375
vt 0.126953125 0.91015625
vt 0.126953125 0.919921875
vt 0.11328125 0.919921875
vt 0.11328125 0.91015625
vt 0.255126953125 0.89306640625
vt 0.253662109375 0.90234375
vt 0.243408203125 0.90234375
vt 0.236572265625 0.89306640625
vt 0.33029981149873755 0.6833251037563836
vt 0.330078125 0.69482421875
vt 0.3166825176082211 0.6947405396513094
vt 0.31690420410695863 0.683241424657693
vt 0.31690419729572106 0.6832413209013094
vt 0.3166825176082211 0.6947405396513094
vt 0.3034178691707211 0.6947405396513094
vt 0.3036395488582211 0.6832413209013094
vt 0.507080078125 0.740234375
vt 0.476318359375 0.75
vt 0.270263671875 0.75
vt 0.271728515625 0.740234375
vt 0.1943359375 0.6499986328125
vt 0.1943359375 0.68212890625
vt 0.18115234375 0.68212890625
vt 0.18115234375 0.6499986328125
vn 1 0 0
vn 0 1 0
vn 0.21137670767985006 0.22482795271402234 0.9511951845593253
vn 0 -1 0
vn 0.13336218285311663 0.6808745626391846 -0.7201557874068298
vn 0 1 0
vn 0 0.2300254539289697 0.9731846127764102
vn 0 -1 0
vn 0.08047664137347178 0.6847830575051781 -0.724289772361246
vn 1 0 0
vn 0 -1 0
vn 0 -1 0
vn 0 1 0
vn 0 1 0
vn 0 0.1559625734730109 0.987762965329069
vn 1 0 0
vn 0.14745474334251532 0.5867146629839031 -0.7962556140495827
vn 0.08909491591283186 0.5908399686850955 -0.8018542432154868
vn 1 0 0
vn 0 0.9574070061993649 0.2887417955204434
vn -1 0 0
vn 0 1 0
vn -0.21137670767985006 0.22482795271402234 0.9511951845593253
vn 0 -1 0
vn -0.13336218285311663 0.6808745626391846 -0.7201557874068298
vn 0 1 0
vn 0 0.2300254539289697 0.9731846127764102
vn 0 -1 0
vn -0.08047664137347178 0.6847830575051781 -0.724289772361246
vn -1 0 0
vn 0 -1 0
vn 0 -1 0
vn 0 1 0
vn 0 1 0
vn 0 0.1559625734730109 0.987762965329069
vn -1 0 0
vn -0.14745474334251532 0.5867146629839031 -0.7962556140495827
vn -0.08909491591283186 0.5908399686850955 -0.8018542432154868
vn -1 0 0
vn 0 0.9574070061993649 0.2887417955204434
usemtl m_b6ff2bf3-7377-38d9-cef1-a4bad89fd7a3
f 51/153/39 58/154/39 57/155/39 49/156/39
f 49/157/40 57/158/40 60/159/40 54/160/40
f 54/161/41 55/162/41 51/163/41 49/164/41
f 55/165/42 59/166/42 58/167/42 51/168/42
f 56/169/43 53/170/43 50/171/43 52/172/43
f 65/173/44 62/174/44 47/175/44 48/176/44
f 55/177/45 54/178/45 42/179/45 43/180/45
f 43/181/46 45/182/46 59/183/46 55/184/46
f 53/185/47 56/186/47 44/187/47 41/188/47
f 50/189/48 57/190/48 58/191/48 52/192/48
f 52/193/49 58/194/49 59/195/49 56/196/49
f 56/197/50 59/198/50 45/199/50 44/200/50
f 46/201/51 47/202/51 62/203/51 61/204/51
f 61/205/52 62/206/52 63/207/52 64/208/52
f 63/209/53 62/210/53 60/211/53 57/212/53
f 64/213/54 63/214/54 57/215/54 50/216/54
f 61/217/55 64/218/55 50/219/55 53/220/55
f 46/221/56 61/222/56 53/223/56 41/224/56
f 62/225/57 65/226/57 54/227/57 60/228/57
f 65/229/58 48/230/58 42/231/58 54/232/58
f 74/233/59 75/234/59 68/235/59 66/236/59
f 77/237/60 74/238/60 66/239/60 71/240/60
f 68/241/61 72/242/61 71/243/61 66/244/61
f 75/245/62 76/246/62 72/247/62 68/248/62
f 67/249/63 70/250/63 73/251/63 69/252/63
f 47/253/64 79/254/64 82/255/64 48/256/64
f 42/257/65 71/258/65 72/259/65 43/260/65
f 76/261/66 45/262/66 43/263/66 72/264/66
f 44/265/67 73/266/67 70/267/67 41/268/67
f 75/269/68 74/270/68 67/271/68 69/272/68
f 76/273/69 75/274/69 69/275/69 73/276/69
f 45/277/70 76/278/70 73/279/70 44/280/70
f 79/281/71 47/282/71 46/283/71 78/284/71
f 80/285/72 79/286/72 78/287/72 81/288/72
f 77/289/73 79/290/73 80/291/73 74/292/73
f 74/293/74 80/294/74 81/295/74 67/296/74
f 67/297/75 81/298/75 78/299/75 70/300/75
f 70/301/76 78/302/76 46/303/76 41/304/76
f 71/305/77 82/306/77 79/307/77 77/308/77
f 42/309/78 48/310/78 82/311/78 71/312/78
o cuboid
v 0.296875 3.390625 0.78125
v 0.296875 3.390625 0.171875
v 0.296875 2.21875 0.78125
v 0.296875 2.21875 -0.875
v -0.296875 3.390625 0.78125
v -0.296875 3.390625 0.171875
v -0.296875 2.21875 0.78125
v -0.296875 2.21875 -0.875
vt 0.328125 0.751953125
vt 0.34765625 0.751953125
vt 0.34765625 0.771484375
vt 0.328125 0.771484375
vt 0.294921875 0.634765625
vt 0.294921875 0.6875
vt 0.275390625 0.6875
vt 0.275390625 0.634765625
vt 0.041015625 0.63671875
vt 0.041015625 0.673828125
vt 0.021484375 0.673828125
vt 0.021484375 0.63671875
vt 0.01953125 0.673828125
vt 0 0.673828125
vt 0 0.625
vt 0.01953125 0.625
vt 0.28076171875 0.7265625
vt 0.30078125 0.7265625
vt 0.30078125 0.689453125
vt 0.248046875 0.689453125
vt 0.30078125 0.689453125
vt 0.30078125 0.7265625
vt 0.28076171875 0.7265625
vt 0.248046875 0.689453125
vn 0 1 0
vn 0 -1 0
vn 0 0 1
vn 0 0.6662133453145342 -0.7457612074416429
vn 1 0 0
vn -1 0 0
usemtl m_b6ff2bf3-7377-38d9-cef1-a4bad89fd7a3
f 87/313/79 83/314/79 84/315/79 88/316/79
f 86/317/80 85/318/80 89/319/80 90/320/80
f 85/321/81 83/322/81 87/323/81 89/324/81
f 88/325/82 84/326/82 86/327/82 90/328/82
f 84/329/83 83/330/83 85/331/83 86/332/83
f 89/333/84 87/334/84 88/335/84 90/336/84